# xmcd
#
# Track frame offsets:
#	150
#	34355
#	71869
#	98432
#	122869
#	144820
#	172507
#	196419
#	215370
#	244019
#	263934
#	291405
#	310539
#
# Disc length: 4484 seconds
# Revision: 0
# Processed by: cddbd v1.5.2PL0 Copyright (c) Steve Scherf et al.
# Submitted via: dBpowerAMP V12.0
#
DISCID=b711820d
DTITLE=Various Artist - Freestyle's Ultimate Collection
DYEAR=1986
DGENRE=Freestyle
TTITLE0=The Cover Girls - Show Me
TTITLE1=Judy Torres - Love You, Will You Love Me
TTITLE2=Exo - Why Did You Do It
TTITLE3=Voyce - Within My Heart
TTITLE4=Sweet Sensation - (Goodbye Baby) Victim Of Love
TTITLE5=Chrissy I-eece - You Should Know By Now
TTITLE6=Jasmin - Once Is Enough
TTITLE7=Timmy T - Time After Time
TTITLE8=Seduction - Two To Make It Right
TTITLE9=Elvira - 4 Letter Word
TTITLE10=Sammy C - A Distant Memory
TTITLE11=Masters At Work - Papa Beats
TTITLE12=Sandee - You're The One
EXTD=
EXTT0=
EXTT1=
EXTT2=
EXTT3=
EXTT4=
EXTT5=
EXTT6=
EXTT7=
EXTT8=
EXTT9=
EXTT10=
EXTT11=
EXTT12=
PLAYORDER=
